<svg width="21" height="23" viewBox="0 0 21 23" fill="none" xmlns="http://www.w3.org/2000/svg">
<path d="M5.013 1.5C3.709 1.629 2.831 1.919 2.175 2.576C1 3.753 1 5.648 1 9.439V13.459C1 17.249 1 19.145 2.175 20.323C3.35 21.501 5.242 21.5 9.025 21.5H11.032C14.815 21.5 16.707 21.5 17.882 20.323C18.949 19.253 19.048 17.606 19.057 14.477" stroke="white" stroke-width="2" stroke-linecap="round" stroke-linejoin="round"/>
<path d="M9.02474 6.49968L10.0277 9.99968C10.5877 11.1097 11.2907 11.3997 13.0377 11.4997C14.4267 11.4657 15.2327 11.3017 15.9207 10.7037C16.3897 10.2957 16.6017 9.68068 16.7047 9.06868L17.0487 6.99968M19.5567 4.99968V9.99968M7.09974 4.43268C8.68674 3.11568 10.1007 2.40868 13.0337 1.63068C13.3646 1.54332 13.7127 1.54504 14.0427 1.63568C16.6387 2.34968 18.0407 2.98368 19.9187 4.39368C19.9987 4.45368 20.0227 4.56568 19.9667 4.64868C19.3537 5.55068 17.9847 6.28168 14.6267 7.58368C13.9273 7.85281 13.1522 7.84852 12.4557 7.57168C8.87974 6.15168 7.23574 5.39168 7.03574 4.60268C7.02924 4.57119 7.0318 4.5385 7.04313 4.50841C7.05446 4.47832 7.07409 4.45206 7.09974 4.43268Z" stroke="white" stroke-width="2" stroke-linecap="round" stroke-linejoin="round"/>
</svg>
