<svg width="202" height="42" viewBox="0 0 202 42" fill="none" xmlns="http://www.w3.org/2000/svg">
<path d="M10.5248 36.7448L10.5175 24.7115H14.4512L14.4585 36.7448H10.5248Z" fill="#41644A"/>
<path d="M32.6447 17.3419V21.0657H26.8667V36.7448H22.554V21.0657H16.776V17.3419H32.6447Z" fill="#41644A"/>
<path d="M32.37 29.4932C32.37 28.1867 32.5635 27.048 32.9505 26.0774C33.356 25.0882 33.8813 24.2669 34.5263 23.6136C35.1714 22.9603 35.9086 22.4657 36.738 22.1297C37.5858 21.7937 38.452 21.6257 39.3367 21.6257C41.4009 21.6257 43.032 22.2697 44.23 23.5576C45.428 24.8268 46.0269 26.7027 46.0269 29.1853C46.0269 29.4279 46.0177 29.6986 45.9993 29.9972C45.9809 30.2772 45.9624 30.5292 45.944 30.7532H36.5998C36.6919 31.6118 37.0882 32.2931 37.7885 32.7971C38.4889 33.301 39.4288 33.553 40.6084 33.553C41.364 33.553 42.1013 33.4877 42.82 33.357C43.5573 33.2077 44.1562 33.0304 44.617 32.8251L45.1699 36.2129C44.9488 36.3248 44.6539 36.4368 44.2853 36.5488C43.9167 36.6608 43.502 36.7542 43.0412 36.8288C42.5989 36.9221 42.1197 36.9968 41.6036 37.0528C41.0876 37.1088 40.5715 37.1368 40.0555 37.1368C38.7469 37.1368 37.6042 36.9408 36.6274 36.5488C35.669 36.1569 34.8673 35.6249 34.2222 34.9529C33.5956 34.2623 33.1256 33.4503 32.8123 32.5171C32.5174 31.5838 32.37 30.5758 32.37 29.4932ZM42.046 27.8973C42.0275 27.5427 41.963 27.1974 41.8524 26.8614C41.7603 26.5254 41.6036 26.2268 41.3825 25.9654C41.1797 25.7041 40.9125 25.4895 40.5807 25.3215C40.2674 25.1535 39.8712 25.0695 39.392 25.0695C38.9312 25.0695 38.535 25.1535 38.2032 25.3215C37.8715 25.4708 37.595 25.6761 37.3738 25.9374C37.1527 26.1988 36.9776 26.5068 36.8486 26.8614C36.738 27.1974 36.655 27.5427 36.5998 27.8973H42.046Z" fill="#41644A"/>
<path d="M48.5146 29.3813C48.5146 28.3173 48.6805 27.3187 49.0123 26.3854C49.3624 25.4335 49.8601 24.6122 50.5051 23.9216C51.1502 23.2123 51.9335 22.6523 52.855 22.2417C53.7765 21.831 54.8271 21.6257 56.0066 21.6257C56.7807 21.6257 57.4903 21.7004 58.1353 21.8497C58.7804 21.9803 59.407 22.1763 60.0153 22.4377L59.1582 25.7695C58.7712 25.6201 58.3473 25.4895 57.8865 25.3775C57.4258 25.2655 56.9097 25.2095 56.3384 25.2095C55.122 25.2095 54.2096 25.5921 53.6014 26.3574C53.0117 27.1227 52.7168 28.1307 52.7168 29.3813C52.7168 30.7065 52.9932 31.7331 53.5462 32.4611C54.1175 33.189 55.1035 33.553 56.5042 33.553C57.0019 33.553 57.5364 33.5063 58.1077 33.413C58.679 33.3197 59.2043 33.1704 59.6835 32.965L60.2641 36.3808C59.7849 36.5862 59.1859 36.7635 58.4671 36.9128C57.7483 37.0621 56.9558 37.1368 56.0896 37.1368C54.7626 37.1368 53.6199 36.9408 52.6615 36.5488C51.7031 36.1382 50.9106 35.5876 50.284 34.8969C49.6757 34.2063 49.2242 33.3944 48.9293 32.4611C48.6529 31.5091 48.5146 30.4825 48.5146 29.3813Z" fill="#41644A"/>
<path d="M63.0286 36.7448V15.69L67.1479 15.0181V22.0737C67.4243 21.9803 67.7745 21.8963 68.1984 21.8217C68.6407 21.7284 69.0646 21.6817 69.4701 21.6817C70.6496 21.6817 71.6265 21.8497 72.4005 22.1857C73.193 22.503 73.8197 22.9603 74.2804 23.5576C74.7596 24.1549 75.0914 24.8642 75.2757 25.6855C75.4784 26.5068 75.5798 27.4214 75.5798 28.4293V36.7448H71.4606V28.9333C71.4606 27.5894 71.2855 26.6374 70.9353 26.0774C70.6036 25.5175 69.9769 25.2375 69.0554 25.2375C68.6868 25.2375 68.3366 25.2748 68.0049 25.3495C67.6916 25.4055 67.4059 25.4708 67.1479 25.5455V36.7448H63.0286Z" fill="#41644A"/>
<path d="M97.9281 36.7448C97.7253 36.0729 97.495 35.3822 97.2369 34.6729C96.9973 33.9637 96.7577 33.2544 96.5181 32.5451H89.0538C88.8142 33.2544 88.5654 33.9637 88.3074 34.6729C88.0678 35.3822 87.8466 36.0729 87.6439 36.7448H83.1653C83.884 34.6543 84.566 32.7224 85.2111 30.9492C85.8561 29.1759 86.4827 27.5054 87.091 25.9374C87.7176 24.3695 88.3258 22.8856 88.9156 21.4857C89.5238 20.0671 90.1504 18.6859 90.7955 17.3419H94.9147C95.5413 18.6859 96.1588 20.0671 96.767 21.4857C97.3752 22.8856 97.9834 24.3695 98.5916 25.9374C99.2182 27.5054 99.8541 29.1759 100.499 30.9492C101.144 32.7224 101.826 34.6543 102.545 36.7448H97.9281ZM92.7583 21.7377C92.6662 22.0177 92.5279 22.4003 92.3436 22.8856C92.1593 23.3709 91.9474 23.9309 91.7078 24.5655C91.4682 25.2002 91.2009 25.9001 90.9061 26.6654C90.6296 27.4307 90.3439 28.2333 90.049 29.0733H95.4953C95.2004 28.2333 94.9147 27.4307 94.6382 26.6654C94.3618 25.9001 94.0945 25.2002 93.8365 24.5655C93.5969 23.9309 93.385 23.3709 93.2007 22.8856C93.0163 22.4003 92.8689 22.0177 92.7583 21.7377Z" fill="#E9762B"/>
<path d="M103.76 29.3813C103.76 28.3173 103.926 27.3187 104.258 26.3854C104.608 25.4335 105.106 24.6122 105.751 23.9216C106.396 23.2123 107.179 22.6523 108.101 22.2417C109.022 21.831 110.073 21.6257 111.252 21.6257C112.026 21.6257 112.736 21.7004 113.381 21.8497C114.026 21.9803 114.653 22.1763 115.261 22.4377L114.404 25.7695C114.017 25.6201 113.593 25.4895 113.132 25.3775C112.671 25.2655 112.155 25.2095 111.584 25.2095C110.368 25.2095 109.455 25.5921 108.847 26.3574C108.257 27.1227 107.962 28.1307 107.962 29.3813C107.962 30.7065 108.239 31.7331 108.792 32.4611C109.363 33.189 110.349 33.553 111.75 33.553C112.247 33.553 112.782 33.5063 113.353 33.413C113.925 33.3197 114.45 33.1704 114.929 32.965L115.51 36.3808C115.03 36.5862 114.431 36.7635 113.713 36.9128C112.994 37.0621 112.201 37.1368 111.335 37.1368C110.008 37.1368 108.865 36.9408 107.907 36.5488C106.949 36.1382 106.156 35.5876 105.53 34.8969C104.921 34.2063 104.47 33.3944 104.175 32.4611C103.898 31.5091 103.76 30.4825 103.76 29.3813Z" fill="#E9762B"/>
<path d="M123.129 33.833C123.535 33.833 123.922 33.8237 124.29 33.805C124.659 33.7863 124.954 33.7583 125.175 33.721V30.5572C125.009 30.5198 124.76 30.4825 124.428 30.4452C124.097 30.4079 123.793 30.3892 123.516 30.3892C123.129 30.3892 122.76 30.4172 122.41 30.4732C122.079 30.5105 121.784 30.5945 121.526 30.7252C121.268 30.8558 121.065 31.0332 120.917 31.2571C120.77 31.4811 120.696 31.7611 120.696 32.0971C120.696 32.7504 120.908 33.2077 121.332 33.469C121.774 33.7117 122.373 33.833 123.129 33.833ZM122.797 21.6257C124.014 21.6257 125.027 21.7657 125.838 22.0457C126.649 22.3257 127.294 22.727 127.774 23.2496C128.271 23.7722 128.621 24.4069 128.824 25.1535C129.027 25.9001 129.128 26.7307 129.128 27.6454V36.3248C128.538 36.4555 127.718 36.6048 126.668 36.7728C125.617 36.9595 124.346 37.0528 122.853 37.0528C121.913 37.0528 121.056 36.9688 120.282 36.8008C119.526 36.6328 118.872 36.3622 118.319 35.9889C117.766 35.5969 117.342 35.0929 117.047 34.477C116.752 33.861 116.605 33.105 116.605 32.2091C116.605 31.3505 116.771 30.6225 117.102 30.0252C117.453 29.4279 117.913 28.9519 118.485 28.5973C119.056 28.2427 119.71 27.9907 120.447 27.8413C121.185 27.6733 121.95 27.5894 122.742 27.5894C123.277 27.5894 123.747 27.6174 124.152 27.6733C124.576 27.7107 124.917 27.7667 125.175 27.8413V27.4494C125.175 26.7401 124.963 26.1708 124.539 25.7415C124.115 25.3122 123.378 25.0975 122.327 25.0975C121.627 25.0975 120.936 25.1535 120.254 25.2655C119.572 25.3588 118.982 25.4988 118.485 25.6855L117.959 22.3257C118.199 22.251 118.494 22.1763 118.844 22.1017C119.213 22.0083 119.609 21.9337 120.033 21.8777C120.457 21.803 120.899 21.747 121.36 21.7097C121.839 21.6537 122.318 21.6257 122.797 21.6257Z" fill="#E9762B"/>
<path d="M136.364 29.2693C136.364 30.5572 136.65 31.5931 137.221 32.3771C137.792 33.161 138.64 33.553 139.764 33.553C140.133 33.553 140.474 33.5437 140.787 33.525C141.101 33.4877 141.359 33.4503 141.561 33.413V25.8255C141.303 25.6575 140.962 25.5175 140.539 25.4055C140.133 25.2935 139.718 25.2375 139.294 25.2375C137.341 25.2375 136.364 26.5814 136.364 29.2693ZM145.681 36.2689C145.312 36.3808 144.888 36.4928 144.409 36.6048C143.93 36.6982 143.423 36.7822 142.888 36.8568C142.372 36.9315 141.838 36.9875 141.285 37.0248C140.751 37.0808 140.234 37.1088 139.737 37.1088C138.539 37.1088 137.47 36.9315 136.53 36.5768C135.59 36.2222 134.797 35.7182 134.152 35.0649C133.507 34.393 133.01 33.5903 132.66 32.6571C132.328 31.7051 132.162 30.6412 132.162 29.4652C132.162 28.2706 132.309 27.1974 132.604 26.2454C132.899 25.2748 133.323 24.4535 133.876 23.7816C134.429 23.1096 135.102 22.5963 135.894 22.2417C136.705 21.887 137.627 21.7097 138.659 21.7097C139.23 21.7097 139.737 21.7657 140.179 21.8777C140.64 21.9897 141.101 22.1483 141.561 22.3537V15.69L145.681 15.0181V36.2689Z" fill="#E9762B"/>
<path d="M148.847 29.4932C148.847 28.1867 149.04 27.048 149.427 26.0774C149.833 25.0882 150.358 24.2669 151.003 23.6136C151.648 22.9603 152.385 22.4657 153.215 22.1297C154.062 21.7937 154.929 21.6257 155.813 21.6257C157.877 21.6257 159.509 22.2697 160.707 23.5576C161.905 24.8268 162.504 26.7027 162.504 29.1853C162.504 29.4279 162.494 29.6986 162.476 29.9972C162.457 30.2772 162.439 30.5292 162.421 30.7532H153.076C153.168 31.6118 153.565 32.2931 154.265 32.7971C154.965 33.301 155.905 33.553 157.085 33.553C157.841 33.553 158.578 33.4877 159.297 33.357C160.034 33.2077 160.633 33.0304 161.094 32.8251L161.647 36.2129C161.425 36.3248 161.13 36.4368 160.762 36.5488C160.393 36.6608 159.979 36.7542 159.518 36.8288C159.075 36.9221 158.596 36.9968 158.08 37.0528C157.564 37.1088 157.048 37.1368 156.532 37.1368C155.223 37.1368 154.081 36.9408 153.104 36.5488C152.146 36.1569 151.344 35.6249 150.699 34.9529C150.072 34.2623 149.602 33.4503 149.289 32.5171C148.994 31.5838 148.847 30.5758 148.847 29.4932ZM158.523 27.8973C158.504 27.5427 158.44 27.1974 158.329 26.8614C158.237 26.5254 158.08 26.2268 157.859 25.9654C157.656 25.7041 157.389 25.4895 157.057 25.3215C156.744 25.1535 156.348 25.0695 155.869 25.0695C155.408 25.0695 155.012 25.1535 154.68 25.3215C154.348 25.4708 154.072 25.6761 153.85 25.9374C153.629 26.1988 153.454 26.5068 153.325 26.8614C153.215 27.1974 153.132 27.5427 153.076 27.8973H158.523Z" fill="#E9762B"/>
<path d="M173.672 28.9333C173.672 27.5894 173.497 26.6374 173.147 26.0774C172.815 25.5175 172.234 25.2375 171.405 25.2375C171.147 25.2375 170.88 25.2562 170.603 25.2935C170.327 25.3121 170.06 25.3402 169.802 25.3775V36.7448H165.682V22.5216C166.033 22.4283 166.438 22.335 166.899 22.2417C167.378 22.1297 167.876 22.0363 168.392 21.9617C168.926 21.8684 169.47 21.803 170.023 21.7657C170.576 21.7097 171.119 21.6817 171.654 21.6817C172.704 21.6817 173.552 21.8217 174.197 22.1017C174.861 22.363 175.404 22.6803 175.828 23.0536C176.418 22.6243 177.091 22.2883 177.846 22.0457C178.621 21.803 179.33 21.6817 179.975 21.6817C181.136 21.6817 182.085 21.8497 182.823 22.1857C183.578 22.503 184.177 22.9603 184.62 23.5576C185.062 24.1549 185.366 24.8642 185.532 25.6855C185.698 26.5068 185.781 27.4214 185.781 28.4293V36.7448H181.662V28.9333C181.662 27.5894 181.486 26.6374 181.136 26.0774C180.805 25.5175 180.224 25.2375 179.395 25.2375C179.173 25.2375 178.86 25.2935 178.455 25.4055C178.068 25.5175 177.745 25.6575 177.487 25.8255C177.616 26.2548 177.699 26.7121 177.736 27.1974C177.773 27.664 177.791 28.168 177.791 28.7093V36.7448H173.672V28.9333Z" fill="#E9762B"/>
<path d="M202 22.0177C201.171 24.8548 200.304 27.5147 199.401 29.9972C198.498 32.4797 197.512 34.8876 196.443 37.2208C196.056 38.0607 195.669 38.77 195.282 39.3487C194.895 39.946 194.471 40.4313 194.01 40.8046C193.55 41.1966 193.024 41.4765 192.435 41.6445C191.863 41.8312 191.191 41.9245 190.416 41.9245C189.771 41.9245 189.172 41.8592 188.619 41.7285C188.085 41.6165 187.643 41.4859 187.292 41.3366L188.011 38.0047C188.435 38.1541 188.813 38.2567 189.145 38.3127C189.476 38.3687 189.827 38.3967 190.195 38.3967C190.932 38.3967 191.495 38.1914 191.882 37.7808C192.287 37.3888 192.628 36.8382 192.905 36.1289C191.965 34.2623 191.025 32.1718 190.085 29.8572C189.145 27.524 188.26 24.9108 187.431 22.0177H191.799C191.983 22.7456 192.195 23.5389 192.435 24.3975C192.693 25.2375 192.96 26.0961 193.236 26.9734C193.513 27.832 193.789 28.672 194.066 29.4932C194.361 30.3145 194.637 31.0612 194.895 31.7331C195.135 31.0612 195.383 30.3145 195.641 29.4932C195.899 28.672 196.148 27.832 196.388 26.9734C196.646 26.0961 196.886 25.2375 197.107 24.3975C197.346 23.5389 197.558 22.7456 197.743 22.0177H202Z" fill="#E9762B"/>
<path d="M16.6305 23.412L16.436 23.4716L21.3043 30.221C21.3043 30.221 16.751 25.3589 15.6476 23.783C14.5443 22.2072 16.6305 23.412 16.6305 23.412Z" fill="#E9762B"/>
<path fill-rule="evenodd" clip-rule="evenodd" d="M14.7245 0C14.7245 0 9.10414 11.9522 16.1939 22.375C16.1939 22.375 21.4069 23.9503 24.7961 26.7166C24.3742 26.3847 19.6549 23.7032 13.4715 23.1042C7.28766 22.5051 9.09475 22.6329 9.09475 22.6329C9.09475 22.6329 7.07338 22.6581 5.20425 20.7198C5.20425 20.7198 1.23332 17.1514 0 16.9859C0.598404 16.5606 1.72649 17.3669 2.92874 16.0819C3.15681 15.8992 4.9293 14.4292 7.33079 16.9647C7.25074 15.8546 9.16683 7.6928 14.7245 0Z" fill="#E9762B"/>
</svg>
