<svg width="37" height="24" viewBox="0 0 37 24" fill="none" xmlns="http://www.w3.org/2000/svg">
<path d="M13.6328 3.25488H23.3667V20.745H13.6328V3.25488Z" fill="#FF5F00"/>
<path d="M14.2512 12.0004C14.2512 8.44685 15.9198 5.29485 18.4845 3.25532C16.5997 1.77208 14.2203 0.875977 11.6246 0.875977C5.47505 0.875977 0.5 5.85101 0.5 12.0004C0.5 18.1499 5.47505 23.1249 11.6245 23.1249C14.2202 23.1249 16.5995 22.2288 18.4845 20.7454C15.9198 18.7369 14.2512 15.554 14.2512 12.0004Z" fill="#EB001B"/>
<path d="M36.5001 12.0004C36.5001 18.1497 31.5251 23.1249 25.3756 23.1249C22.7799 23.1249 20.4006 22.2288 18.5156 20.7454C21.1113 18.706 22.7491 15.554 22.7491 12.0004C22.7491 8.44685 21.0804 5.29485 18.5156 3.25532C20.4005 1.77208 22.7799 0.875977 25.3756 0.875977C31.5251 0.875977 36.5001 5.88198 36.5001 12.0004Z" fill="#F79E1B"/>
</svg>
